<svg xmlns="http://www.w3.org/2000/svg" width="41.874" height="41.874" viewBox="0 0 41.874 41.874"><defs><style>.a{fill:#f2750f;}</style></defs><path class="a" d="M40.68,29.59l-9.16-3.926a1.963,1.963,0,0,0-2.29.564l-4.057,4.956A30.315,30.315,0,0,1,10.681,16.693l4.956-4.057a1.958,1.958,0,0,0,.564-2.29l-3.926-9.16A1.976,1.976,0,0,0,10.027.05L1.521,2.013A1.963,1.963,0,0,0,0,3.926,37.945,37.945,0,0,0,37.949,41.875a1.963,1.963,0,0,0,1.914-1.521l1.963-8.506A1.987,1.987,0,0,0,40.68,29.59Z" transform="translate(0 0)"/></svg>