<svg xmlns="http://www.w3.org/2000/svg" width="43.296" height="29.226" viewBox="0 0 43.296 29.226"><defs><style>.a{fill:#f2750f;}</style></defs><path class="a" d="M.072,30.705V6.657q0-.042.125-.793L14.351,17.971.239,31.54a3.538,3.538,0,0,1-.167-.835ZM1.951,4.193a1.8,1.8,0,0,1,.71-.125H40.779a2.364,2.364,0,0,1,.752.125l-14.2,12.15-1.879,1.5-3.716,3.048-3.716-3.048-1.879-1.5Zm.042,28.975L16.23,19.516l5.511,4.467,5.511-4.467L41.489,33.168a2,2,0,0,1-.71.125H2.661a1.891,1.891,0,0,1-.668-.125Zm27.138-15.2L43.242,5.863a2.492,2.492,0,0,1,.125.793V30.705a3.2,3.2,0,0,1-.125.835Z" transform="translate(-0.072 -4.068)"/></svg>